<?xml version="1.0" encoding="UTF-8"?>
<svg width="24px" height="24px" viewBox="0 0 24 24" version="1.1" xmlns="http://www.w3.org/2000/svg" xmlns:xlink="http://www.w3.org/1999/xlink">
    <!-- Generator: Sketch 48.2 (47327) - http://www.bohemiancoding.com/sketch -->
    <title>Group 4</title>
    <desc>Created with Sketch.</desc>
    <defs>
        <circle id="path-1" cx="12" cy="12" r="12"></circle>
    </defs>
    <g id="布局1" stroke="none" stroke-width="1" fill="none" fill-rule="evenodd" transform="translate(-1228.000000, -8.000000)">
        <g id="Group-84-Copy">
            <g id="Group-4" transform="translate(1228.000000, 8.000000)">
                <mask id="mask-2" fill="white">
                    <use xlink:href="#path-1"></use>
                </mask>
                <use id="Oval" fill="#EBE3DC" xlink:href="#path-1"></use>
                <g id="boy-5" mask="url(#mask-2)">
                    <g transform="translate(3.450000, 3.300000)">
                        <g id="Group-7" transform="translate(0.000000, 12.750000)">
                            <polygon id="Fill-1" fill="#FDCC9B" points="6.80745 4.0689 10.33485 4.0689 10.33485 0.1185 6.80745 0.1185"></polygon>
                            <path d="M6.80745,0.58365 C6.80745,0.58365 8.29155,1.5282 10.3347,1.30965 L10.3347,0.1179 L6.80745,0.1179 L6.80745,0.58365 Z" id="Fill-2" fill="#FCBC85"></path>
                            <path d="M8.57115,8.10015 C8.57115,8.10015 6.22032594,7.83874242 5.04491391,7.63303863 C3.36327594,7.33874242 0,6.15015 0,6.15015 C0,4.35075 4.5147,1.7052 8.57115,1.7052 L8.57115,8.10015 Z" id="Fill-15" fill="#F7941E"></path>
                            <path d="M8.57115,8.10015 C8.57115,8.10015 11.2037152,8.04335586 12.5199978,7.78995879 C14.0607152,7.49335586 17.14215,6.15015 17.14215,6.15015 C17.14215,4.35075 12.6276,1.7052 8.57115,1.7052 L8.57115,8.10015 Z" id="Fill-16" fill="#F7941E"></path>
                            <path d="M8.57115,1.7052 C7.70865,1.7052 6.825,1.82595 5.96835,2.0322 C5.9742,2.0391 6.91875,3.2574 8.57115,3.2574 C10.1016,3.2574 11.11935,2.2143 11.26635,2.0538 C10.38105,1.83405 9.4653,1.7052 8.57115,1.7052 L8.57115,1.7052 Z" id="Fill-17" fill="#F36C21"></path>
                            <path d="M6.80745,1.85925 C6.80745,1.85925 7.3236,2.49915 8.57115,2.49915 C9.81915,2.49915 10.3347,1.85925 10.3347,1.85925 C10.3347,1.85925 8.50485,1.1931 6.80745,1.85925 L6.80745,1.85925 Z" id="Fill-18" fill="#FDCC9B"></path>
                        </g>
                        <g id="Group-6" transform="translate(2.400000, 0.000000)">
                            <path d="M2.55,8.32521769 C2.55,9.11173236 1.97919735,9.75 1.27483333,9.75 C0.570802649,9.75 0,9.11173236 0,8.32521769 C0,7.5381588 0.570802649,6.9 1.27483333,6.9 C1.97919735,6.9 2.55,7.5381588 2.55,8.32521769 L2.55,8.32521769 Z" id="Fill-3" fill="#FCBC85"></path>
                            <path d="M12.45,8.32521769 C12.45,9.11173236 11.879209,9.75 11.1750556,9.75 C10.4709022,9.75 9.9,9.11173236 9.9,8.32521769 C9.9,7.5381588 10.4709022,6.9 11.1750556,6.9 C11.879209,6.9 12.45,7.5381588 12.45,8.32521769 L12.45,8.32521769 Z" id="Fill-4" fill="#FCBC85"></path>
                            <path d="M11.2449737,5.83213668 C11.2449737,3.76369976 9.71555382,2.25 6.29999395,2.25 C2.88432569,2.25 1.35501421,3.76369976 1.35501421,5.83213668 C1.35501421,7.90100272 0.998402486,13.35 6.29999395,13.35 C11.6019106,13.35 11.2449737,7.90100272 11.2449737,5.83213668 L11.2449737,5.83213668 Z" id="Fill-5" fill="#FDCC9B"></path>
                            <path d="M10.2624762,1.65150442 C10.2624762,1.65150442 8.4259476,-0.681467155 4.60817261,0.198263189 C0.790506092,1.07799353 0.504433329,3.37290454 0.619318068,5.60557406 C0.734094322,7.83867732 1.04056211,9.14835106 1.40246531,8.98656656 C1.76426002,8.82478206 1.57614847,7.35072138 1.6143349,7.01056187 C1.65241284,6.67040236 1.99695857,5.13247367 4.31873683,5.36202983 C6.64062358,5.59115225 8.59713563,4.74991621 8.59713563,4.74991621 C8.59713563,4.74991621 9.38494769,5.74491259 9.90317658,5.93554071 C10.938875,6.31636322 10.5989941,8.85655341 11.0049418,8.85655341 C11.4104557,8.85655341 13.4004893,2.99045552 10.2624762,1.65150442 L10.2624762,1.65150442 Z" id="Fill-20" fill="#51362A"></path>
                        </g>
                    </g>
                </g>
            </g>
        </g>
    </g>
</svg>